<mxfile host="app.diagrams.net" modified="2023-09-25T03:16:24.699Z" agent="Mozilla/5.0 (Linux; Android 10; K) AppleWebKit/537.36 (KHTML, like Gecko) Chrome/114.0.0.0 Mobile Safari/537.36" etag="grpvhmLVmUTj7Cw3FIwX" version="21.8.2" type="github">
  <diagram id="TGpe45YdTHm00n5unMOi" name="Page-2">
    <mxGraphModel dx="2594" dy="2032" grid="1" gridSize="10" guides="1" tooltips="1" connect="1" arrows="1" fold="1" page="1" pageScale="1" pageWidth="827" pageHeight="1169" math="0" shadow="0">
      <root>
        <mxCell id="0" />
        <mxCell id="1" parent="0" />
        <mxCell id="XvxGuA_PLaIaQm-edbHC-43" value="" style="group" vertex="1" connectable="0" parent="1">
          <mxGeometry x="80" y="-1030" width="1200" height="620" as="geometry" />
        </mxCell>
        <mxCell id="XvxGuA_PLaIaQm-edbHC-31" value="&lt;br&gt;&lt;br&gt;&lt;br&gt;&lt;br&gt;&lt;br&gt;&lt;br&gt;&lt;br&gt;" style="whiteSpace=wrap;html=1;" vertex="1" parent="XvxGuA_PLaIaQm-edbHC-43">
          <mxGeometry width="1200" height="620" as="geometry" />
        </mxCell>
        <mxCell id="cLZUiNcZSRKTFdNPr3M2-7" value="Backend" style="whiteSpace=wrap;strokeWidth=2;verticalAlign=top;fillColor=#dae8fc;strokeColor=#6c8ebf;fontStyle=1" parent="XvxGuA_PLaIaQm-edbHC-43" vertex="1">
          <mxGeometry x="818.8235294117649" y="395.00000000000006" width="282.35294117647055" height="90" as="geometry" />
        </mxCell>
        <mxCell id="cLZUiNcZSRKTFdNPr3M2-8" value="MongoDB" style="whiteSpace=wrap;strokeWidth=2;fontStyle=1" parent="cLZUiNcZSRKTFdNPr3M2-7" vertex="1">
          <mxGeometry x="47.7999073645206" y="35.35714285714285" width="94.48818897637796" height="36.42857142857142" as="geometry" />
        </mxCell>
        <mxCell id="cLZUiNcZSRKTFdNPr3M2-9" value="AWS" style="whiteSpace=wrap;strokeWidth=2;fontStyle=1" parent="cLZUiNcZSRKTFdNPr3M2-7" vertex="1">
          <mxGeometry x="197.86938397406203" y="35.35714285714285" width="54.46966188050021" height="36.42857142857142" as="geometry" />
        </mxCell>
        <mxCell id="cLZUiNcZSRKTFdNPr3M2-11" value="UrbnRover" style="rounded=1;absoluteArcSize=1;arcSize=14;whiteSpace=wrap;strokeWidth=2;fillColor=#f8cecc;strokeColor=#b85450;fontStyle=1" parent="XvxGuA_PLaIaQm-edbHC-43" vertex="1">
          <mxGeometry x="496.23529411764696" y="293.00000000000006" width="197.64705882352942" height="34" as="geometry" />
        </mxCell>
        <mxCell id="cLZUiNcZSRKTFdNPr3M2-12" value="MapAPI" style="whiteSpace=wrap;strokeWidth=2;fillColor=#d5e8d4;strokeColor=#82b366;fontStyle=1" parent="XvxGuA_PLaIaQm-edbHC-43" vertex="1">
          <mxGeometry x="653.6470588235295" y="422.99999999999994" width="101.6470588235294" height="34" as="geometry" />
        </mxCell>
        <mxCell id="XvxGuA_PLaIaQm-edbHC-16" style="edgeStyle=orthogonalEdgeStyle;rounded=0;orthogonalLoop=1;jettySize=auto;html=1;exitX=0;exitY=0.5;exitDx=0;exitDy=0;" edge="1" parent="XvxGuA_PLaIaQm-edbHC-43" source="cLZUiNcZSRKTFdNPr3M2-7" target="cLZUiNcZSRKTFdNPr3M2-12">
          <mxGeometry relative="1" as="geometry" />
        </mxCell>
        <mxCell id="XvxGuA_PLaIaQm-edbHC-42" value="" style="edgeStyle=orthogonalEdgeStyle;rounded=0;orthogonalLoop=1;jettySize=auto;html=1;" edge="1" parent="XvxGuA_PLaIaQm-edbHC-43" source="cLZUiNcZSRKTFdNPr3M2-7" target="cLZUiNcZSRKTFdNPr3M2-12">
          <mxGeometry relative="1" as="geometry" />
        </mxCell>
        <mxCell id="cLZUiNcZSRKTFdNPr3M2-13" value="Firebase" style="whiteSpace=wrap;strokeWidth=2;fillColor=#fff2cc;strokeColor=#d6b656;fontStyle=1" parent="XvxGuA_PLaIaQm-edbHC-43" vertex="1">
          <mxGeometry x="667.764705882353" y="535" width="107.29411764705883" height="34" as="geometry" />
        </mxCell>
        <mxCell id="cLZUiNcZSRKTFdNPr3M2-14" value="Users" style="whiteSpace=wrap;strokeWidth=2;verticalAlign=top;fontStyle=1" parent="XvxGuA_PLaIaQm-edbHC-43" vertex="1">
          <mxGeometry x="302.82352941176475" y="121" width="499.7647058823529" height="84.00000000000001" as="geometry" />
        </mxCell>
        <mxCell id="cLZUiNcZSRKTFdNPr3M2-15" value="User 1" style="rounded=1;absoluteArcSize=1;arcSize=14;whiteSpace=wrap;strokeWidth=2;fillColor=#e3c800;fontColor=#000000;strokeColor=#B09500;fontStyle=1" parent="XvxGuA_PLaIaQm-edbHC-43" vertex="1">
          <mxGeometry x="352.9411764705882" y="140.00000000000003" width="67.76470588235293" height="34" as="geometry" />
        </mxCell>
        <mxCell id="cLZUiNcZSRKTFdNPr3M2-16" value="User 2" style="rounded=1;absoluteArcSize=1;arcSize=14;whiteSpace=wrap;strokeWidth=2;fillColor=#e3c800;fontColor=#000000;strokeColor=#B09500;fontStyle=1" parent="XvxGuA_PLaIaQm-edbHC-43" vertex="1">
          <mxGeometry x="520.2352941176471" y="155" width="67.76470588235293" height="34" as="geometry" />
        </mxCell>
        <mxCell id="cLZUiNcZSRKTFdNPr3M2-17" value="User 3" style="rounded=1;absoluteArcSize=1;arcSize=14;whiteSpace=wrap;strokeWidth=2;fillColor=#e3c800;fontColor=#000000;strokeColor=#B09500;fontStyle=1" parent="XvxGuA_PLaIaQm-edbHC-43" vertex="1">
          <mxGeometry x="687.529411764706" y="140.00000000000003" width="67.76470588235293" height="34" as="geometry" />
        </mxCell>
        <mxCell id="XvxGuA_PLaIaQm-edbHC-41" style="edgeStyle=orthogonalEdgeStyle;rounded=0;orthogonalLoop=1;jettySize=auto;html=1;exitX=0.75;exitY=1;exitDx=0;exitDy=0;entryX=0.25;entryY=1;entryDx=0;entryDy=0;" edge="1" parent="XvxGuA_PLaIaQm-edbHC-43" source="cLZUiNcZSRKTFdNPr3M2-18" target="cLZUiNcZSRKTFdNPr3M2-7">
          <mxGeometry relative="1" as="geometry">
            <Array as="points">
              <mxPoint x="513.8823529411765" y="495.00000000000006" />
              <mxPoint x="889.4117647058823" y="495.00000000000006" />
            </Array>
          </mxGeometry>
        </mxCell>
        <mxCell id="cLZUiNcZSRKTFdNPr3M2-18" value="PaymentGateway" style="whiteSpace=wrap;strokeWidth=2;fillColor=#d5e8d4;strokeColor=#82b366;fontStyle=1" parent="XvxGuA_PLaIaQm-edbHC-43" vertex="1">
          <mxGeometry x="367.05882352941177" y="421.00000000000006" width="196.23529411764707" height="34" as="geometry" />
        </mxCell>
        <mxCell id="XvxGuA_PLaIaQm-edbHC-7" style="edgeStyle=orthogonalEdgeStyle;rounded=0;orthogonalLoop=1;jettySize=auto;html=1;exitX=0.5;exitY=1;exitDx=0;exitDy=0;entryX=1;entryY=0.5;entryDx=0;entryDy=0;" edge="1" parent="XvxGuA_PLaIaQm-edbHC-43" source="cLZUiNcZSRKTFdNPr3M2-7" target="cLZUiNcZSRKTFdNPr3M2-13">
          <mxGeometry relative="1" as="geometry" />
        </mxCell>
        <mxCell id="XvxGuA_PLaIaQm-edbHC-8" value="&lt;b&gt;Authentication&lt;/b&gt;" style="edgeLabel;html=1;align=center;verticalAlign=middle;resizable=0;points=[];" vertex="1" connectable="0" parent="XvxGuA_PLaIaQm-edbHC-7">
          <mxGeometry x="-0.2584" y="-3" relative="1" as="geometry">
            <mxPoint as="offset" />
          </mxGeometry>
        </mxCell>
        <mxCell id="cLZUiNcZSRKTFdNPr3M2-19" value="Displays" style="startArrow=none;endArrow=block;exitX=0.687;exitY=1.01;entryX=0.856;entryY=0.059;rounded=0;exitDx=0;exitDy=0;exitPerimeter=0;edgeStyle=orthogonalEdgeStyle;curved=1;entryDx=0;entryDy=0;entryPerimeter=0;fontStyle=1" parent="XvxGuA_PLaIaQm-edbHC-43" source="cLZUiNcZSRKTFdNPr3M2-11" target="cLZUiNcZSRKTFdNPr3M2-12" edge="1">
          <mxGeometry relative="1" as="geometry" />
        </mxCell>
        <mxCell id="cLZUiNcZSRKTFdNPr3M2-20" value="Interacts with" style="startArrow=none;endArrow=block;exitX=0.5651468659862672;exitY=0.9801919600542854;entryX=0.0017389121808503803;entryY=0.2900807341666557;rounded=0;edgeStyle=orthogonalEdgeStyle;fontStyle=1" parent="XvxGuA_PLaIaQm-edbHC-43" source="cLZUiNcZSRKTFdNPr3M2-11" target="cLZUiNcZSRKTFdNPr3M2-13" edge="1">
          <mxGeometry x="0.5194" y="-9" relative="1" as="geometry">
            <Array as="points">
              <mxPoint x="608.470588235294" y="431.00000000000006" />
              <mxPoint x="607.0588235294118" y="545" />
            </Array>
            <mxPoint as="offset" />
          </mxGeometry>
        </mxCell>
        <mxCell id="cLZUiNcZSRKTFdNPr3M2-21" value="Books Parking" style="curved=1;startArrow=none;endArrow=block;exitX=0.4867563843727112;exitY=0.9933973200180951;entryX=0.03942032147780608;entryY=-0.013205359963809742;rounded=0;fontStyle=1" parent="XvxGuA_PLaIaQm-edbHC-43" source="cLZUiNcZSRKTFdNPr3M2-15" target="cLZUiNcZSRKTFdNPr3M2-11" edge="1">
          <mxGeometry x="-0.0028" relative="1" as="geometry">
            <Array as="points">
              <mxPoint x="385.41176470588226" y="268" />
            </Array>
            <mxPoint as="offset" />
          </mxGeometry>
        </mxCell>
        <mxCell id="cLZUiNcZSRKTFdNPr3M2-22" value="Views Offers" style="curved=1;startArrow=none;endArrow=block;exitX=0.5010659495989481;exitY=0.9933973200180951;entryX=0.4961608518404018;entryY=-0.013205359963809742;rounded=0;fontStyle=1" parent="XvxGuA_PLaIaQm-edbHC-43" source="cLZUiNcZSRKTFdNPr3M2-16" target="cLZUiNcZSRKTFdNPr3M2-11" edge="1">
          <mxGeometry relative="1" as="geometry">
            <Array as="points">
              <mxPoint x="550.5882352941178" y="268" />
            </Array>
          </mxGeometry>
        </mxCell>
        <mxCell id="cLZUiNcZSRKTFdNPr3M2-23" value="Receives Alerts" style="curved=1;startArrow=none;endArrow=block;exitX=0.4847499330838521;exitY=0.9933973200180951;entryX=0.9667185449097196;entryY=-0.013205359963809742;rounded=0;fontStyle=1" parent="XvxGuA_PLaIaQm-edbHC-43" source="cLZUiNcZSRKTFdNPr3M2-17" target="cLZUiNcZSRKTFdNPr3M2-11" edge="1">
          <mxGeometry relative="1" as="geometry">
            <Array as="points">
              <mxPoint x="720" y="268" />
            </Array>
          </mxGeometry>
        </mxCell>
        <mxCell id="cLZUiNcZSRKTFdNPr3M2-24" value="Processes Payments" style="startArrow=none;endArrow=block;exitX=0.19420509552755727;exitY=0.9801919600542854;rounded=0;edgeStyle=orthogonalEdgeStyle;curved=1;entryX=0.5;entryY=0;entryDx=0;entryDy=0;fontStyle=1" parent="XvxGuA_PLaIaQm-edbHC-43" source="cLZUiNcZSRKTFdNPr3M2-11" target="cLZUiNcZSRKTFdNPr3M2-18" edge="1">
          <mxGeometry x="-0.0054" relative="1" as="geometry">
            <mxPoint x="409.41176470588243" y="395.00000000000006" as="targetPoint" />
            <mxPoint as="offset" />
          </mxGeometry>
        </mxCell>
        <mxCell id="cLZUiNcZSRKTFdNPr3M2-27" value="Interacts with Providers" style="startArrow=none;endArrow=block;exitX=0;exitY=0.5;rounded=0;entryX=0.5;entryY=0;entryDx=0;entryDy=0;exitDx=0;exitDy=0;edgeStyle=orthogonalEdgeStyle;curved=1;fontStyle=1" parent="XvxGuA_PLaIaQm-edbHC-43" edge="1" target="cLZUiNcZSRKTFdNPr3M2-4" source="cLZUiNcZSRKTFdNPr3M2-11">
          <mxGeometry x="0.2135" y="4" relative="1" as="geometry">
            <mxPoint x="687.529411764706" y="245.00473173149427" as="sourcePoint" />
            <mxPoint x="-385.41176470588226" y="375" as="targetPoint" />
            <mxPoint x="-1" as="offset" />
          </mxGeometry>
        </mxCell>
        <mxCell id="zHc5FtYi1ibVrk5QGJjf-5" value="" style="group;rotation=90;" parent="XvxGuA_PLaIaQm-edbHC-43" vertex="1" connectable="0">
          <mxGeometry x="42.35294117647059" y="405" width="296.47058823529414" height="109" as="geometry" />
        </mxCell>
        <mxCell id="cLZUiNcZSRKTFdNPr3M2-4" value="Service Providers" style="whiteSpace=wrap;strokeWidth=2;verticalAlign=top;fontStyle=1;fontSize=15;fillColor=#dae8fc;strokeColor=#6c8ebf;" parent="zHc5FtYi1ibVrk5QGJjf-5" vertex="1">
          <mxGeometry width="296.47058823529414" height="109" as="geometry" />
        </mxCell>
        <mxCell id="cLZUiNcZSRKTFdNPr3M2-5" value="Public" style="rounded=1;absoluteArcSize=1;arcSize=14;whiteSpace=wrap;strokeWidth=2;fontStyle=1" parent="zHc5FtYi1ibVrk5QGJjf-5" vertex="1">
          <mxGeometry x="28.235294117647054" y="48.99999999999999" width="83.29411764705883" height="33.99999999999999" as="geometry" />
        </mxCell>
        <mxCell id="cLZUiNcZSRKTFdNPr3M2-6" value="Private" style="rounded=1;absoluteArcSize=1;arcSize=14;whiteSpace=wrap;strokeWidth=2;fontStyle=1" parent="zHc5FtYi1ibVrk5QGJjf-5" vertex="1">
          <mxGeometry x="169.41176470588235" y="50.00000000000001" width="93.17647058823529" height="33.99999999999999" as="geometry" />
        </mxCell>
        <mxCell id="XvxGuA_PLaIaQm-edbHC-13" style="edgeStyle=orthogonalEdgeStyle;rounded=0;orthogonalLoop=1;jettySize=auto;html=1;exitX=0.75;exitY=1;exitDx=0;exitDy=0;entryX=0.5;entryY=1;entryDx=0;entryDy=0;" edge="1" parent="XvxGuA_PLaIaQm-edbHC-43" source="cLZUiNcZSRKTFdNPr3M2-7" target="cLZUiNcZSRKTFdNPr3M2-4">
          <mxGeometry relative="1" as="geometry">
            <Array as="points">
              <mxPoint x="1023.5294117647059" y="585" />
              <mxPoint x="176.4705882352941" y="585" />
            </Array>
          </mxGeometry>
        </mxCell>
        <mxCell id="XvxGuA_PLaIaQm-edbHC-3" value="Displays" style="curved=1;startArrow=none;endArrow=block;entryX=0.5;entryY=0;rounded=0;edgeStyle=orthogonalEdgeStyle;entryDx=0;entryDy=0;fontStyle=1" edge="1" parent="XvxGuA_PLaIaQm-edbHC-43" target="cLZUiNcZSRKTFdNPr3M2-7">
          <mxGeometry relative="1" as="geometry">
            <Array as="points">
              <mxPoint x="945.8823529411766" y="324.00000000000006" />
            </Array>
            <mxPoint x="691.7647058823529" y="323" as="sourcePoint" />
            <mxPoint x="697.4117647058823" y="446.00000000000006" as="targetPoint" />
          </mxGeometry>
        </mxCell>
        <mxCell id="XvxGuA_PLaIaQm-edbHC-5" value="" style="group;fontStyle=1" vertex="1" connectable="0" parent="XvxGuA_PLaIaQm-edbHC-43">
          <mxGeometry x="960" y="145" width="155.2941176470588" height="114.00000000000003" as="geometry" />
        </mxCell>
        <mxCell id="cLZUiNcZSRKTFdNPr3M2-1" value="" style="whiteSpace=wrap;strokeWidth=2;verticalAlign=top;fillColor=#fad7ac;strokeColor=#b46504;" parent="XvxGuA_PLaIaQm-edbHC-5" vertex="1">
          <mxGeometry y="30.000000000000004" width="155.2941176470588" height="84.00000000000003" as="geometry" />
        </mxCell>
        <mxCell id="cLZUiNcZSRKTFdNPr3M2-2" value="Admin" style="rounded=1;absoluteArcSize=1;arcSize=14;whiteSpace=wrap;strokeWidth=2;fontStyle=1" parent="XvxGuA_PLaIaQm-edbHC-5" vertex="1">
          <mxGeometry x="28.235294117647054" y="54.000000000000014" width="100.23529411764707" height="36" as="geometry" />
        </mxCell>
        <mxCell id="zHc5FtYi1ibVrk5QGJjf-8" value="System Monitor" style="text;strokeColor=none;align=center;fillColor=none;html=1;verticalAlign=middle;whiteSpace=wrap;rounded=0;fontStyle=1" parent="XvxGuA_PLaIaQm-edbHC-5" vertex="1">
          <mxGeometry x="14.117647058823527" width="127.05882352941174" height="30.000000000000004" as="geometry" />
        </mxCell>
        <mxCell id="XvxGuA_PLaIaQm-edbHC-23" value="" style="shape=flexArrow;endArrow=classic;startArrow=classic;html=1;rounded=0;entryX=0.5;entryY=1;entryDx=0;entryDy=0;width=12.727272727272727;startSize=6.381818181818181;exitX=0.788;exitY=-0.003;exitDx=0;exitDy=0;exitPerimeter=0;" edge="1" parent="XvxGuA_PLaIaQm-edbHC-43" source="cLZUiNcZSRKTFdNPr3M2-7" target="cLZUiNcZSRKTFdNPr3M2-1">
          <mxGeometry width="100" height="100" relative="1" as="geometry">
            <mxPoint x="1157.6470588235297" y="435.00000000000006" as="sourcePoint" />
            <mxPoint x="1298.8235294117646" y="334.99999999999994" as="targetPoint" />
            <Array as="points" />
          </mxGeometry>
        </mxCell>
        <mxCell id="XvxGuA_PLaIaQm-edbHC-34" value="UrbnRover Architecture" style="text;strokeColor=none;align=center;fillColor=none;html=1;verticalAlign=middle;whiteSpace=wrap;rounded=0;fontStyle=1;fontSize=40;" vertex="1" parent="XvxGuA_PLaIaQm-edbHC-43">
          <mxGeometry x="249.34588235294117" y="35.00000000000001" width="658.9411764705883" height="40" as="geometry" />
        </mxCell>
        <mxCell id="XvxGuA_PLaIaQm-edbHC-24" value="" style="edgeStyle=orthogonalEdgeStyle;rounded=0;orthogonalLoop=1;jettySize=auto;html=1;" edge="1" parent="XvxGuA_PLaIaQm-edbHC-43" source="cLZUiNcZSRKTFdNPr3M2-18" target="cLZUiNcZSRKTFdNPr3M2-6">
          <mxGeometry relative="1" as="geometry" />
        </mxCell>
      </root>
    </mxGraphModel>
  </diagram>
</mxfile>
